<mxfile host="app.diagrams.net" modified="2024-07-25T13:38:21.022Z" agent="Mozilla/5.0 (Windows NT 10.0; Win64; x64) AppleWebKit/537.36 (KHTML, like Gecko) Chrome/127.0.0.0 Safari/537.36" etag="0ZdeYpd2OBMerHix_oY3" version="24.6.4" type="github">
  <diagram name="第 1 页" id="UgYprfsCHXyhRw42ALS6">
    <mxGraphModel dx="1050" dy="557" grid="1" gridSize="10" guides="1" tooltips="1" connect="1" arrows="1" fold="1" page="1" pageScale="1" pageWidth="827" pageHeight="1169" math="0" shadow="0">
      <root>
        <mxCell id="0" />
        <mxCell id="1" parent="0" />
        <mxCell id="Fkq1C80HDPR4oawkZcrF-42" value="" style="rounded=0;whiteSpace=wrap;html=1;" vertex="1" parent="1">
          <mxGeometry x="10" y="161" width="820" height="479" as="geometry" />
        </mxCell>
        <mxCell id="Fkq1C80HDPR4oawkZcrF-2" value="" style="endArrow=none;html=1;rounded=0;" edge="1" parent="1">
          <mxGeometry width="50" height="50" relative="1" as="geometry">
            <mxPoint x="39" y="200" as="sourcePoint" />
            <mxPoint x="279" y="200" as="targetPoint" />
          </mxGeometry>
        </mxCell>
        <mxCell id="Fkq1C80HDPR4oawkZcrF-3" value="&lt;h2&gt;专用零信任产品系统架构&lt;/h2&gt;" style="text;html=1;align=center;verticalAlign=middle;whiteSpace=wrap;rounded=0;fontColor=#FFFFFF;" vertex="1" parent="1">
          <mxGeometry x="295" y="184" width="250" height="30" as="geometry" />
        </mxCell>
        <mxCell id="Fkq1C80HDPR4oawkZcrF-4" value="" style="endArrow=none;html=1;rounded=0;" edge="1" parent="1">
          <mxGeometry width="50" height="50" relative="1" as="geometry">
            <mxPoint x="558" y="198.5" as="sourcePoint" />
            <mxPoint x="798" y="198.5" as="targetPoint" />
          </mxGeometry>
        </mxCell>
        <mxCell id="Fkq1C80HDPR4oawkZcrF-5" value="" style="rounded=0;whiteSpace=wrap;html=1;fillColor=#dae8fc;strokeColor=#6c8ebf;" vertex="1" parent="1">
          <mxGeometry x="52" y="230" width="140" height="380" as="geometry" />
        </mxCell>
        <mxCell id="Fkq1C80HDPR4oawkZcrF-6" value="" style="image;aspect=fixed;perimeter=ellipsePerimeter;html=1;align=center;shadow=0;dashed=0;spacingTop=3;image=img/lib/active_directory/vista_client.svg;" vertex="1" parent="1">
          <mxGeometry x="103" y="254" width="38" height="50" as="geometry" />
        </mxCell>
        <mxCell id="Fkq1C80HDPR4oawkZcrF-7" value="" style="image;aspect=fixed;perimeter=ellipsePerimeter;html=1;align=center;shadow=0;dashed=0;spacingTop=3;image=img/lib/active_directory/vista_client.svg;" vertex="1" parent="1">
          <mxGeometry x="103" y="320" width="38" height="50" as="geometry" />
        </mxCell>
        <mxCell id="Fkq1C80HDPR4oawkZcrF-8" value="&lt;h2&gt;零信任客户端&lt;/h2&gt;" style="text;html=1;align=center;verticalAlign=middle;whiteSpace=wrap;rounded=0;" vertex="1" parent="1">
          <mxGeometry x="67" y="563.5" width="110" height="30" as="geometry" />
        </mxCell>
        <mxCell id="Fkq1C80HDPR4oawkZcrF-9" value="&lt;h3&gt;零信任隐身&lt;/h3&gt;" style="rounded=0;whiteSpace=wrap;html=1;fillColor=#1ba1e2;fontColor=#000000;strokeColor=#006EAF;" vertex="1" parent="1">
          <mxGeometry x="63" y="390" width="120" height="40" as="geometry" />
        </mxCell>
        <mxCell id="Fkq1C80HDPR4oawkZcrF-10" value="&lt;h3&gt;Netlink双向连接&lt;/h3&gt;" style="rounded=0;whiteSpace=wrap;html=1;fillColor=#1ba1e2;fontColor=#000000;strokeColor=#006EAF;" vertex="1" parent="1">
          <mxGeometry x="63" y="450" width="120" height="40" as="geometry" />
        </mxCell>
        <mxCell id="Fkq1C80HDPR4oawkZcrF-11" value="&lt;h3&gt;安全传输隧道&lt;/h3&gt;" style="rounded=0;whiteSpace=wrap;html=1;fillColor=#1ba1e2;fontColor=#000000;strokeColor=#006EAF;" vertex="1" parent="1">
          <mxGeometry x="62" y="510" width="120" height="40" as="geometry" />
        </mxCell>
        <mxCell id="Fkq1C80HDPR4oawkZcrF-12" value="" style="rounded=0;whiteSpace=wrap;html=1;fillColor=#dae8fc;strokeColor=#6c8ebf;" vertex="1" parent="1">
          <mxGeometry x="250" y="470" width="340" height="140" as="geometry" />
        </mxCell>
        <mxCell id="Fkq1C80HDPR4oawkZcrF-14" value="&lt;h2&gt;零信任网关&lt;/h2&gt;" style="text;html=1;align=center;verticalAlign=middle;whiteSpace=wrap;rounded=0;" vertex="1" parent="1">
          <mxGeometry x="270" y="470" width="110" height="30" as="geometry" />
        </mxCell>
        <mxCell id="Fkq1C80HDPR4oawkZcrF-15" value="&lt;h3&gt;安全传输隧道&lt;/h3&gt;" style="rounded=0;whiteSpace=wrap;html=1;fillColor=#1ba1e2;fontColor=#000000;strokeColor=#006EAF;" vertex="1" parent="1">
          <mxGeometry x="295" y="510" width="120" height="40" as="geometry" />
        </mxCell>
        <mxCell id="Fkq1C80HDPR4oawkZcrF-16" value="&lt;h3&gt;Netlink双向连接&lt;/h3&gt;" style="rounded=0;whiteSpace=wrap;html=1;fillColor=#1ba1e2;fontColor=#000000;strokeColor=#006EAF;" vertex="1" parent="1">
          <mxGeometry x="440" y="510" width="120" height="40" as="geometry" />
        </mxCell>
        <mxCell id="Fkq1C80HDPR4oawkZcrF-17" value="" style="image;aspect=fixed;perimeter=ellipsePerimeter;html=1;align=center;shadow=0;dashed=0;spacingTop=3;image=img/lib/active_directory/modem.svg;" vertex="1" parent="1">
          <mxGeometry x="310" y="557.75" width="50" height="41.5" as="geometry" />
        </mxCell>
        <mxCell id="Fkq1C80HDPR4oawkZcrF-18" value="" style="image;aspect=fixed;perimeter=ellipsePerimeter;html=1;align=center;shadow=0;dashed=0;spacingTop=3;image=img/lib/active_directory/modem.svg;" vertex="1" parent="1">
          <mxGeometry x="400" y="557.75" width="50" height="41.5" as="geometry" />
        </mxCell>
        <mxCell id="Fkq1C80HDPR4oawkZcrF-19" value="" style="image;aspect=fixed;perimeter=ellipsePerimeter;html=1;align=center;shadow=0;dashed=0;spacingTop=3;image=img/lib/active_directory/modem.svg;" vertex="1" parent="1">
          <mxGeometry x="495" y="557.75" width="50" height="41.5" as="geometry" />
        </mxCell>
        <mxCell id="Fkq1C80HDPR4oawkZcrF-20" value="" style="rounded=0;whiteSpace=wrap;html=1;fillColor=#dae8fc;strokeColor=#6c8ebf;" vertex="1" parent="1">
          <mxGeometry x="250" y="230" width="340" height="190" as="geometry" />
        </mxCell>
        <mxCell id="Fkq1C80HDPR4oawkZcrF-21" value="&lt;h2&gt;零信任控制平台&lt;/h2&gt;" style="text;html=1;align=center;verticalAlign=middle;whiteSpace=wrap;rounded=0;" vertex="1" parent="1">
          <mxGeometry x="270" y="235" width="150" height="30" as="geometry" />
        </mxCell>
        <mxCell id="Fkq1C80HDPR4oawkZcrF-22" value="&lt;h3&gt;4A认证体系&lt;/h3&gt;" style="rounded=0;whiteSpace=wrap;html=1;fillColor=#1ba1e2;fontColor=#000000;strokeColor=#006EAF;" vertex="1" parent="1">
          <mxGeometry x="280" y="270" width="120" height="40" as="geometry" />
        </mxCell>
        <mxCell id="Fkq1C80HDPR4oawkZcrF-23" value="&lt;h3&gt;可信评估&lt;/h3&gt;" style="rounded=0;whiteSpace=wrap;html=1;fillColor=#1ba1e2;fontColor=#000000;strokeColor=#006EAF;" vertex="1" parent="1">
          <mxGeometry x="280" y="320" width="120" height="40" as="geometry" />
        </mxCell>
        <mxCell id="Fkq1C80HDPR4oawkZcrF-24" value="&lt;h3&gt;持续监测&lt;/h3&gt;" style="rounded=0;whiteSpace=wrap;html=1;fillColor=#1ba1e2;fontColor=#000000;strokeColor=#006EAF;" vertex="1" parent="1">
          <mxGeometry x="280" y="370" width="120" height="40" as="geometry" />
        </mxCell>
        <mxCell id="Fkq1C80HDPR4oawkZcrF-26" value="&lt;h3&gt;策略管理&lt;/h3&gt;" style="rounded=0;whiteSpace=wrap;html=1;fillColor=#1ba1e2;fontColor=#000000;strokeColor=#006EAF;" vertex="1" parent="1">
          <mxGeometry x="440" y="270" width="120" height="40" as="geometry" />
        </mxCell>
        <mxCell id="Fkq1C80HDPR4oawkZcrF-27" value="&lt;h3&gt;终端管理&lt;/h3&gt;" style="rounded=0;whiteSpace=wrap;html=1;fillColor=#1ba1e2;fontColor=#000000;strokeColor=#006EAF;" vertex="1" parent="1">
          <mxGeometry x="440" y="320" width="120" height="40" as="geometry" />
        </mxCell>
        <mxCell id="Fkq1C80HDPR4oawkZcrF-28" value="&lt;h3&gt;用户管理&lt;/h3&gt;" style="rounded=0;whiteSpace=wrap;html=1;fillColor=#1ba1e2;fontColor=#000000;strokeColor=#006EAF;" vertex="1" parent="1">
          <mxGeometry x="440" y="370" width="120" height="40" as="geometry" />
        </mxCell>
        <mxCell id="Fkq1C80HDPR4oawkZcrF-30" value="" style="rounded=0;whiteSpace=wrap;html=1;fillColor=#dae8fc;strokeColor=#6c8ebf;" vertex="1" parent="1">
          <mxGeometry x="645" y="230" width="140" height="380" as="geometry" />
        </mxCell>
        <mxCell id="Fkq1C80HDPR4oawkZcrF-31" value="&lt;h2&gt;统一日志外发&lt;/h2&gt;" style="text;html=1;align=center;verticalAlign=middle;whiteSpace=wrap;rounded=0;" vertex="1" parent="1">
          <mxGeometry x="660" y="563.5" width="110" height="30" as="geometry" />
        </mxCell>
        <mxCell id="Fkq1C80HDPR4oawkZcrF-32" value="&lt;h3&gt;外接日志对接&lt;/h3&gt;" style="rounded=0;whiteSpace=wrap;html=1;fillColor=#1ba1e2;fontColor=#000000;strokeColor=#006EAF;" vertex="1" parent="1">
          <mxGeometry x="655" y="264" width="120" height="40" as="geometry" />
        </mxCell>
        <mxCell id="Fkq1C80HDPR4oawkZcrF-35" value="" style="shape=flexArrow;endArrow=classic;startArrow=classic;html=1;rounded=0;entryX=-0.005;entryY=0.207;entryDx=0;entryDy=0;entryPerimeter=0;" edge="1" parent="1">
          <mxGeometry width="100" height="100" relative="1" as="geometry">
            <mxPoint x="197" y="490" as="sourcePoint" />
            <mxPoint x="245.29999999999995" y="488.98" as="targetPoint" />
          </mxGeometry>
        </mxCell>
        <mxCell id="Fkq1C80HDPR4oawkZcrF-36" value="" style="shape=flexArrow;endArrow=classic;startArrow=classic;html=1;rounded=0;entryX=-0.005;entryY=0.207;entryDx=0;entryDy=0;entryPerimeter=0;" edge="1" parent="1">
          <mxGeometry width="100" height="100" relative="1" as="geometry">
            <mxPoint x="198" y="561" as="sourcePoint" />
            <mxPoint x="246.29999999999995" y="559.98" as="targetPoint" />
          </mxGeometry>
        </mxCell>
        <mxCell id="Fkq1C80HDPR4oawkZcrF-37" value="" style="shape=flexArrow;endArrow=classic;startArrow=classic;html=1;rounded=0;entryX=0.25;entryY=1;entryDx=0;entryDy=0;exitX=0.596;exitY=-0.193;exitDx=0;exitDy=0;exitPerimeter=0;" edge="1" parent="1">
          <mxGeometry width="100" height="100" relative="1" as="geometry">
            <mxPoint x="335.55999999999995" y="467.21000000000004" as="sourcePoint" />
            <mxPoint x="335" y="423" as="targetPoint" />
          </mxGeometry>
        </mxCell>
        <mxCell id="Fkq1C80HDPR4oawkZcrF-38" value="" style="shape=flexArrow;endArrow=classic;startArrow=classic;html=1;rounded=0;entryX=0.25;entryY=1;entryDx=0;entryDy=0;exitX=0.596;exitY=-0.193;exitDx=0;exitDy=0;exitPerimeter=0;" edge="1" parent="1">
          <mxGeometry width="100" height="100" relative="1" as="geometry">
            <mxPoint x="499.55999999999995" y="467.21000000000004" as="sourcePoint" />
            <mxPoint x="499" y="423" as="targetPoint" />
          </mxGeometry>
        </mxCell>
        <mxCell id="Fkq1C80HDPR4oawkZcrF-39" value="" style="shape=flexArrow;endArrow=classic;html=1;rounded=0;" edge="1" parent="1">
          <mxGeometry width="50" height="50" relative="1" as="geometry">
            <mxPoint x="595" y="330" as="sourcePoint" />
            <mxPoint x="640" y="330" as="targetPoint" />
          </mxGeometry>
        </mxCell>
        <mxCell id="Fkq1C80HDPR4oawkZcrF-40" value="" style="shape=flexArrow;endArrow=classic;html=1;rounded=0;" edge="1" parent="1">
          <mxGeometry width="50" height="50" relative="1" as="geometry">
            <mxPoint x="594" y="445" as="sourcePoint" />
            <mxPoint x="639" y="445" as="targetPoint" />
          </mxGeometry>
        </mxCell>
        <mxCell id="Fkq1C80HDPR4oawkZcrF-41" value="" style="shape=flexArrow;endArrow=classic;html=1;rounded=0;" edge="1" parent="1">
          <mxGeometry width="50" height="50" relative="1" as="geometry">
            <mxPoint x="595" y="541" as="sourcePoint" />
            <mxPoint x="640" y="541" as="targetPoint" />
          </mxGeometry>
        </mxCell>
      </root>
    </mxGraphModel>
  </diagram>
</mxfile>
